{"title":"Avril Lavigne - Rock N Roll (Official Video) 1080p","uid":8832410,"size":152627615,"categoryP":"video","categoryS":"music_videos","magnet":"?xt=urn:btih:f60799ab2e72aa6f5bda4cbd64754808383a5bc8&amp;dn=Avril+Lavigne+-+Rock+N+Roll+%28Official+Video%29+1080p&amp;tr=udp%3A%2F%2Ftracker.openbittorrent.com%3A80&amp;tr=udp%3A%2F%2Fopen.demonii.com%3A1337&amp;tr=udp%3A%2F%2Ftracker.coppersurfer.tk%3A6969&amp;tr=udp%3A%2F%2Fexodus.desync.com%3A6969","seeders":3,"leechers":0,"uploader":"deejayabc","files":1,"time":1377021936,"description":"Keep Seeding!!=))\n\nVideo \nID : 1 \nFormat : AVC \nFormat/Info : Advanced Video Codec \nFormat profile : &lt;a class=&quot;__cf_email__&quot; href=&quot;/cdn-cgi/l/email-protection&quot; data-cfemail=&quot;5119383639111d657f61&quot;&gt;[email&amp;#160;protected]&lt;/a&gt;&lt;script cf-hash='f9e31' type=&quot;text/javascript&quot;&gt;\n/* &lt;![CDATA[ */!function(){try{var t=&quot;currentScript&quot;in document?document.currentScript:function(){for(var t=document.getElementsByTagName(&quot;script&quot;),e=t.length;e--;)if(t[e].getAttribute(&quot;cf-hash&quot;))return t[e]}();if(t&amp;&amp;t.previousSibling){var e,r,n,i,c=t.previousSibling,a=c.getAttribute(&quot;data-cfemail&quot;);if(a){for(e=&quot;&quot;,r=parseInt(a.substr(0,2),16),n=2;a.length-n;n+=2)i=parseInt(a.substr(n,2),16)^r,e+=String.fromCharCode(i);e=document.createTextNode(e),c.parentNode.replaceChild(e,c)}}}catch(u){}}();/* ]]&gt; */&lt;/script&gt; \nFormat settings, CABAC : Yes \nFormat settings, ReFrames : 1 frame \nCodec ID : avc1 \nCodec ID/Info : Advanced Video Coding \nDuration : 5mn 0s \nBit rate : 3 868 Kbps \nMaximum bit rate : 10.7 Mbps \nWidth : 1 920 pixels \nHeight : 1 080 pixels \nDisplay aspect ratio : 16:9 \nFrame rate mode : Constant \nFrame rate : 23.976 fps \nColor space : YUV \nChroma subsampling : 4:2:0 \nBit depth : 8 bits \nScan type : Progressive \nBits/(Pixel*Frame) : 0.078 \nStream size : 139 MiB (95%) \nTagged date : UTC 2013-08-18 18:57:41 \n\nAudio \nID : 2 \nFormat : AAC \nFormat/Info : Advanced Audio Codec \nFormat profile : LC \nCodec ID : 40 \nDuration : 5mn 0s \nBit rate mode : Variable \nBit rate : 192 Kbps \nMaximum bit rate : 201 Kbps \nChannel(s) : 2 channels \nChannel positions : Front: L R \nSampling rate : 44.1 KHz \nCompression mode : Lossy \nStream size : 6.88 MiB (5%) \nTitle : IsoMedia File Produced by Google, 5-11-2011 \nEncoded date : UTC 2013-08-18 18:57:38 \nTagged date : UTC 2013-08-18 18:57:41 \n","torrent":{"xt":"urn:btih:f60799ab2e72aa6f5bda4cbd64754808383a5bc8","amp;dn":"Avril+Lavigne+-+Rock+N+Roll+%28Official+Video%29+1080p","amp;tr":["udp%3A%2F%2Ftracker.openbittorrent.com%3A80","udp%3A%2F%2Fopen.demonii.com%3A1337","udp%3A%2F%2Ftracker.coppersurfer.tk%3A6969","udp%3A%2F%2Fexodus.desync.com%3A6969"],"infoHash":"f60799ab2e72aa6f5bda4cbd64754808383a5bc8","infoHashBuffer":{"type":"Buffer","data":[246,7,153,171,46,114,170,111,91,218,76,189,100,117,72,8,56,58,91,200]},"announce":[],"urlList":[]}}